<?xml version="1.0" encoding="utf-8"?>
<!-- Generator: Adobe Illustrator 23.0.1, SVG Export Plug-In . SVG Version: 6.00 Build 0)  -->
<svg version="1.1" id="Layer_1" xmlns="http://www.w3.org/2000/svg" xmlns:xlink="http://www.w3.org/1999/xlink" x="0px" y="0px"
	 viewBox="0 0 4000 4000" style="enable-background:new 0 0 4000 4000;" xml:space="preserve">
<style type="text/css">
	.st0{fill:#B0ACB0;}
	.st1{fill:#85EBD9;}
	.st2{opacity:0.6;}
	.st3{fill:#E2DDDF;}
	.st4{opacity:0.3;}
	.st5{fill:#3D898D;}
	.st6{fill:#EAE8E8;}
	.st7{fill:#000070;}
	.st8{fill:#000072;}
</style>
<g>
	<g>
		<path class="st0" d="M2344.4,1952.7c-17,12.2-35.7,23.7-56.1,34.5c-171,90.7-376.9,90.7-547.9,0c-4.4-2.3-8.7-4.7-12.9-7.1
			c-191.4-108-222-279.2-91-513.8c-7.6-52.6-12.1-104.6-11.9-155.8c0.1-28.2,1.7-56.1,4.9-83.8c3.1-25.9,26.3-44.5,52.3-42.3
			c86,7.4,162.3,28.5,226.8,66.1l68-4.3c25.1-1.6,50.2-1.6,75.3,0l68,4.3c64.6-37.6,140.8-58.7,226.8-66.1
			c26-2.2,49.2,16.4,52.3,42.3c3.3,27.6,4.9,55.6,4.9,83.8c0.2,51.2-4.4,103.2-11.9,155.8
			C2512.5,1681.9,2496.5,1843.9,2344.4,1952.7z"/>
	</g>
	<g>
		<path class="st1" d="M2344.4,1952.7c-17,12.2-35.7,23.7-56.1,34.5c-171,90.7-376.9,90.7-547.9,0c-4.4-2.3-8.7-4.7-12.9-7.1
			c-161.9-129.6-61.5-292.7,83.8-272.9c68.6,0.6,128.9-7.5,120.6-87.5c-6.9-63.5,4.5-110.2,39.9-135c29.3-20.6,68.8-20.6,98.1,0
			c35.4,24.9,46.9,71.6,39.9,135c-8.3,80,52.1,88.1,120.6,87.5C2365.8,1688.7,2462.1,1828.7,2344.4,1952.7z"/>
	</g>
	<g class="st2">
		<path class="st3" d="M1681.8,1189.6c83.9,7.2,158.6,27.5,222.1,63.4l0,0c-19.7,5.3-40.6,4.3-59.7-3
			c-49.1-18.8-103.5-30.3-162.4-35.4c-26-2.2-49.2,16.4-52.3,42.3c-2.8,23.6-4.4,47.5-4.8,71.5c-0.1-4.3-0.1-8.5-0.1-12.8
			c0.1-28.2,1.7-56.1,4.9-83.8C1632.6,1206,1655.8,1187.4,1681.8,1189.6z"/>
	</g>
	<g class="st4">
		<path class="st3" d="M2344.4,1952.7c-17,12.2-35.8,23.7-56.1,34.5c-171,90.7-376.9,90.7-547.9,0c-4.4-2.3-8.7-4.6-12.9-7.1
			c-113-63.8-169.9-149.6-170.6-257.4c28,49.1,73.6,91.4,136.5,126.9c4.2,2.4,8.5,4.8,12.9,7.1c171,90.7,376.9,90.7,547.9,0
			c20.4-10.8,39.1-22.3,56.1-34.5c94.7-67.7,136.6-156.1,125.8-265.1C2505,1727.9,2474.4,1859.8,2344.4,1952.7z"/>
	</g>
	<g class="st2">
		<path class="st3" d="M2341.1,1189.6c-83.9,7.2-158.6,27.5-222.1,63.4h0c19.7,5.3,40.6,4.3,59.7-3c49.1-18.8,103.5-30.3,162.4-35.4
			c26-2.2,49.2,16.4,52.3,42.3c2.8,23.6,4.4,47.5,4.8,71.5c0.1-4.3,0.1-8.5,0.1-12.8c-0.1-28.2-1.7-56.1-4.9-83.8
			C2390.3,1206,2367.1,1187.4,2341.1,1189.6z"/>
	</g>
	<g>
		<path class="st5" d="M2014.3,2070.4c-96.5,0-193-23.3-281-70c-95.8-50.8-156.4-117.2-180-197.4c-27.7-93.8-4.9-208.1,67.6-339.6
			c-12.6-90.2-14.7-168.2-6.3-238.5c4.1-34,34.1-58.4,68.5-55.5c88.6,7.6,165.6,29.7,229.1,65.8l63.5-4c25.6-1.6,51.6-1.6,77.2,0
			l63.5,4c63.5-36.1,140.5-58.2,229.1-65.8c34.4-2.9,64.4,21.5,68.5,55.5c8.4,70.2,6.3,148.3-6.3,238.5
			c72.6,131.5,95.3,245.8,67.6,339.6c-23.6,80.1-84.2,146.5-180,197.4C2207.3,2047.1,2110.8,2070.4,2014.3,2070.4z M1677.6,1199.2
			c-16.9,0-31.2,12.4-33.2,29.3c-8.2,68.9-5.9,146,6.9,235.7c0.5,3.3-0.1,6.6-1.8,9.4c-70.4,126.1-93.1,234.1-67.5,320.9
			c21.3,72.1,76.9,132.5,165.3,179.3c167.1,88.6,366.7,88.6,533.8,0c88.4-46.9,144-107.2,165.3-179.3
			c25.6-86.9,2.9-194.8-67.5-320.9c-1.6-2.9-2.2-6.2-1.8-9.4c12.9-89.7,15.1-166.8,6.9-235.7c-2.1-17.9-18-30.7-36.1-29.2
			c-86,7.4-160.2,28.9-220.5,64.1c-2.6,1.5-5.5,2.2-8.5,2l-68-4.3c-24.4-1.5-49.1-1.5-73.4,0l-68,4.3c-3,0.2-5.9-0.5-8.5-2
			c-60.3-35.2-134.5-56.8-220.5-64.1C1679.5,1199.3,1678.6,1199.2,1677.6,1199.2z"/>
	</g>
	<g>
		<path class="st1" d="M1697.2,1389.9c32.4-36.7,65.6-68.6,100.4-87.9c-30-14.9-61.9-26.7-96.3-34.6c-10.9-2.5-21.1,6.1-20.4,17.3
			C1683.1,1320,1688.9,1355.1,1697.2,1389.9z"/>
	</g>
	<g class="st4">
		<path class="st6" d="M1797.7,1302c-11.1,6.1-22,13.5-32.7,21.9c-20.3-8.1-41.4-14.8-63.6-19.9c-7.4-1.7-14.5,1.8-18.1,7.7
			c-1-9-1.8-17.9-2.3-27c-0.7-11.2,9.5-19.8,20.4-17.3C1735.7,1275.4,1767.7,1287.2,1797.7,1302z"/>
	</g>
	<g>
		<path class="st1" d="M2340.2,1389.9c-32.4-36.7-65.6-68.6-100.4-87.9c30-14.9,61.9-26.7,96.3-34.6c10.9-2.5,21.1,6.1,20.4,17.3
			C2354.3,1320,2348.6,1355.1,2340.2,1389.9z"/>
	</g>
	<g class="st4">
		<path class="st6" d="M2239.8,1302c11.1,6.1,22,13.5,32.7,21.9c20.3-8.1,41.4-14.8,63.6-19.9c7.4-1.7,14.5,1.8,18.1,7.7
			c1-9,1.8-17.9,2.3-27c0.7-11.2-9.5-19.8-20.4-17.3C2301.7,1275.4,2269.7,1287.2,2239.8,1302z"/>
	</g>
	<g>
		<path class="st5" d="M1697.2,1400.5c-0.8,0-1.7-0.1-2.6-0.3c-3.8-0.9-6.8-4-7.7-7.8c-9-37.5-14.4-72.5-16.6-107
			c-0.5-8.7,3-16.9,9.6-22.5c6.6-5.6,15.3-7.7,23.8-5.8c33.8,7.8,67,19.7,98.6,35.4c3.5,1.7,5.8,5.3,5.9,9.2c0.1,3.9-2,7.6-5.5,9.5
			c-29.2,16.2-60.3,43.4-97.6,85.6C1703.1,1399.2,1700.2,1400.5,1697.2,1400.5z M1697.5,1277.6c-1.9,0-3.2,0.9-3.9,1.5
			c-0.9,0.7-2.3,2.4-2.1,5c1.7,27.2,5.5,54.7,11.6,83.7c26.3-28.3,49.9-49.3,72.4-64.4c-24.8-11-50.4-19.5-76.4-25.5
			C1698.5,1277.6,1698,1277.6,1697.5,1277.6z"/>
	</g>
	<g>
		<path class="st5" d="M2340.2,1400.5c-3,0-5.9-1.3-7.9-3.6c-37.3-42.2-68.4-69.4-97.6-85.6c-3.4-1.9-5.5-5.6-5.5-9.5
			c0.1-3.9,2.3-7.5,5.9-9.2c31.6-15.7,64.8-27.6,98.6-35.4c8.5-2,17.1,0.1,23.7,5.8c6.6,5.6,10.1,13.8,9.6,22.5
			c-2.1,34.6-7.5,69.6-16.6,107c-0.9,3.8-3.9,6.8-7.7,7.8C2341.9,1400.4,2341,1400.5,2340.2,1400.5z M2262,1303.3
			c22.5,15.1,46,36.1,72.4,64.4c6.1-28.9,9.9-56.5,11.6-83.7c0.2-2.7-1.3-4.3-2.1-5c-0.9-0.7-2.7-1.9-5.3-1.3
			C2312.4,1283.8,2286.8,1292.3,2262,1303.3z"/>
	</g>
	<g>
		<path class="st5" d="M1863.6,1399.5c-9.7,2.3-17.5,3.8-24.9,6.2c-7.3,2.3-14.2,4.8-21.2,8.3c-6.9,3.5-13.8,7.8-20.6,12.8
			c-6.9,5-13.8,10.6-21.3,16.5l-0.2,0.1c-2.6,2-6.3,1.6-8.3-1c-1.1-1.4-1.5-3.3-1.1-5c2.3-10.1,6.9-19.6,13.3-28
			c6.3-8.4,14.4-15.9,24-21.5c9.5-5.6,20.7-9.3,32.1-9.3c11.3,0,22.5,3.1,31.1,10c2.6,2.1,3,6,0.9,8.7c-0.9,1.1-2.1,1.8-3.4,2.1
			L1863.6,1399.5z"/>
	</g>
	<g>
		<path class="st5" d="M2176.3,1388.6c8.6-7,19.8-10.1,31.1-10c11.4,0,22.6,3.7,32.1,9.3c9.6,5.6,17.7,13,24,21.5
			c6.3,8.4,11,17.9,13.3,28c0.7,3.2-1.3,6.4-4.5,7.1c-1.8,0.4-3.6-0.1-4.9-1.1l-0.2-0.1c-7.5-5.9-14.4-11.5-21.3-16.5
			c-6.9-5-13.7-9.3-20.6-12.8c-7-3.5-13.9-6-21.2-8.3c-7.4-2.4-15.2-3.9-24.9-6.2l-0.4-0.1c-3.3-0.8-5.4-4.1-4.6-7.4
			C2174.5,1390.6,2175.2,1389.5,2176.3,1388.6z"/>
	</g>
	<g>
		<path class="st7" d="M2066.9,1652.6c0,15.1-20.6,27.3-46,27.3c-25.4,0-46-12.2-46-27.3s20.6-22.9,46-22.9
			C2046.3,1629.7,2066.9,1637.5,2066.9,1652.6z"/>
	</g>
	<g>
		<path class="st8" d="M2031.5,1662.6v41.8c0,1.6-0.4,3.2-1,4.5l-0.4,0.7c-5.5,11.2-16.2,19.7-27.9,23.2c-11.7,3.7-24.2,3.1-35.2-1
			c-11.1-4-20.8-12.2-26.3-22.3c-5.6-10.2-6.9-21.6-5.8-32c0.3-2.5,2.5-4.3,5-4c2.1,0.2,3.6,1.8,4,3.7l0,0.3
			c1.6,9,4.8,17.2,9.9,23.3c5,6.1,11.9,10.1,19.3,11.9c7.4,1.7,15.2,1.3,22-1.2c6.8-2.4,12.5-6.6,16.6-12.4l-1.4,5.2v-41.8
			c0-5.8,4.7-10.6,10.6-10.6C2026.8,1652.1,2031.5,1656.8,2031.5,1662.6z"/>
	</g>
	<g>
		<path class="st8" d="M2031.5,1662.6v41.8l-1.4-5.2c4.1,5.8,9.8,10,16.6,12.4c6.8,2.4,14.6,2.9,22,1.2c7.4-1.8,14.2-5.7,19.3-11.9
			c5.1-6.1,8.3-14.3,9.9-23.3l0-0.3c0.4-2.5,2.8-4.1,5.3-3.7c2,0.4,3.5,2,3.7,4c1.2,10.3-0.1,21.8-5.8,32
			c-5.5,10.2-15.2,18.3-26.3,22.3c-11.1,4.2-23.6,4.7-35.2,1c-11.6-3.6-22.4-12-27.9-23.2l-0.3-0.7c-0.7-1.5-1.1-3-1.1-4.6v-41.8
			c0-5.8,4.7-10.6,10.6-10.6C2026.8,1652.1,2031.5,1656.8,2031.5,1662.6z"/>
	</g>
	<g>
		<g>
			<g>
				<g>
					<path class="st5" d="M1852.9,1478.2c-37.4-7.4-75.2,27-84.3,76.8c-9.2,49.9,13.7,96.3,51.1,103.7c37.4,7.4,75.2-27,84.3-76.8
						C1913.1,1532,1890.3,1485.6,1852.9,1478.2z"/>
				</g>
			</g>
		</g>
		<g>
			<g>
				<g>
					<path class="st3" d="M1848.6,1499c-12.4,3.4-18.9,20-14.5,37.1c4.3,17.1,17.9,28.3,30.2,24.9c12.4-3.4,18.9-20,14.5-37.1
						C1874.5,1506.8,1860.9,1495.6,1848.6,1499z"/>
				</g>
			</g>
		</g>
		<g>
			<g>
				<g>
					<path class="st1" d="M1799.7,1603.2c-6,3.3-7.4,12.7-3.2,21c4.2,8.3,12.5,12.3,18.5,9.1c6-3.3,7.4-12.7,3.2-21
						C1813.9,1603.9,1805.7,1599.9,1799.7,1603.2z"/>
				</g>
			</g>
		</g>
	</g>
	<g>
		<g>
			<g>
				<g>
					<path class="st5" d="M2199.6,1478.2c37.4-7.4,75.2,27,84.3,76.8c9.2,49.9-13.7,96.3-51.1,103.7c-37.4,7.4-75.2-27-84.3-76.8
						C2139.3,1532,2162.2,1485.6,2199.6,1478.2z"/>
				</g>
			</g>
		</g>
		<g>
			<g>
				<g>
					<path class="st3" d="M2203.9,1499c12.4,3.4,18.9,20,14.5,37.1c-4.3,17.1-17.9,28.3-30.2,24.9c-12.4-3.4-18.9-20-14.5-37.1
						C2178,1506.8,2191.6,1495.6,2203.9,1499z"/>
				</g>
			</g>
		</g>
		<g>
			<g>
				<g>
					<path class="st1" d="M2252.8,1603.2c6,3.3,7.4,12.7,3.2,21c-4.2,8.3-12.5,12.3-18.5,9.1c-6-3.3-7.4-12.7-3.2-21
						C2238.5,1603.9,2246.8,1599.9,2252.8,1603.2z"/>
				</g>
			</g>
		</g>
	</g>
</g>
<g>
	<g>
		<path class="st1" d="M1663.8,1864.9c0,50-52.8,60.5-118,60.5c-52.1,0-96.3-6.8-111.9-35.1c-3.9-7.1-6-15.5-6-25.5
			c0-50,52.8-90.5,117.9-90.5c58.7,0,107.5,32.9,116.5,76C1663.2,1855.1,1663.8,1860,1663.8,1864.9z"/>
	</g>
	<g class="st4">
		<path class="st3" d="M1663.8,1864.9c0,50-52.8,60.5-118,60.5c-52.1,0-96.3-6.8-111.9-35.1c-0.5-3-0.7-6.2-0.7-9.6
			c0-5,0.5-9.8,1.5-14.5c20.6,6.9,47.4,9,76.7,9c65.2,0,118-10.6,118-60.5c0-0.6,0-1.1-0.1-1.7c14.8,10,26.3,22.8,33,37.4
			C1663.2,1855.1,1663.8,1860,1663.8,1864.9z"/>
	</g>
	<g>
		<path class="st5" d="M1545.8,1940.4c-36.4,0-133,0-133-75.5c0-58.2,59.6-105.5,133-105.5c73.3,0,133,47.3,133,105.5
			C1678.7,1940.4,1582.2,1940.4,1545.8,1940.4z M1545.8,1789.4c-56.8,0-103,33.9-103,75.5c0,22.5,12.2,45.5,103,45.5
			c90.7,0,103-23,103-45.5C1648.7,1823.3,1602.6,1789.4,1545.8,1789.4z"/>
	</g>
</g>
<g>
	<g>
		<path class="st1" d="M2570.1,1889.3c-12.2,48.5-66,45.8-129.2,30c-50.6-12.7-91.8-30-100-61.3c-2.1-7.8-2.1-16.5,0.4-26.2
			c12.2-48.5,73.3-74.9,136.4-59c57,14.3,96.2,58.1,94.4,102.1C2572,1879.7,2571.3,1884.6,2570.1,1889.3z"/>
	</g>
	<g class="st4">
		<path class="st3" d="M2570.1,1889.3c-12.2,48.5-66,45.8-129.2,30c-50.6-12.7-91.8-30-100-61.3c0.3-3,0.8-6.2,1.6-9.5
			c1.2-4.8,2.9-9.3,5-13.7c18.3,11.7,43.8,20.3,72.2,27.4c63.2,15.9,117,18.5,129.2-30c0.1-0.6,0.3-1.1,0.4-1.7
			c11.9,13.3,19.9,28.5,22.9,44.3C2572,1879.7,2571.3,1884.6,2570.1,1889.3z"/>
	</g>
	<g>
		<path class="st5" d="M2508.1,1944.6c-19.1,0-42.1-3.5-70.8-10.7c-38.9-9.8-65.4-20.6-83.4-34c-31.4-23.4-32.1-51.9-27.2-71.6
			c7-28.1,27.5-50.7,57.7-63.7c28.8-12.5,63.2-14.6,97-6.2c71.1,17.9,117.4,78.3,103.3,134.7c-5,19.7-19,44.5-57.8,50.3
			C2521,1944.2,2514.8,1944.6,2508.1,1944.6z M2440.9,1783.2c-15.9,0-31.1,3-44.6,8.8c-21.4,9.3-35.8,24.7-40.5,43.5
			c-4.1,16.5,0.8,28.9,16,40.3c14.6,10.9,38.4,20.3,72.8,29c34.4,8.6,59.9,11.5,77.8,8.8c18.8-2.8,29-11.4,33.1-27.9
			c10.1-40.4-26.4-84.4-81.5-98.3C2462.9,1784.6,2451.7,1783.2,2440.9,1783.2z"/>
	</g>
</g>
<g>
	<path class="st5" d="M1425.9,2219.1c-74.7-21.1-130.9-55.8-168.6-104c-37.8-48.3-56.6-112.1-56.6-191.4v-125.9
		c0-102.5-44.7-153.7-134.2-153.7v-92c89.4,0,134.2-51.1,134.2-153.3v-131.8c0.8-77.3,19.7-139.7,56.6-187.2
		c36.9-47.5,93.1-82.1,168.6-103.6l24,72.9c-88.2,28.3-132.3,102-132.3,221.2v128c0,95.9-35.2,162.7-105.7,200.3
		c70.5,38,105.7,105.2,105.7,201.8v130.3c1.3,116,45.3,187.9,132.3,215.8L1425.9,2219.1z"/>
</g>
<g>
	<path class="st5" d="M2599.5,2146.3c85.6-27.4,129.9-97.2,132.9-209.4v-139.2c0-97.4,38.2-163.9,114.5-199.3
		c-76.4-34.6-114.5-101.2-114.5-199.6v-128.6c0-119.1-44.1-192.9-132.3-221.2l24-72.9c74.7,21.1,130.8,55.5,168.3,103
		c37.5,47.5,56.5,110.4,57,188.5v133.1c0,101,44.7,151.5,134.2,151.5v92c-89.4,0-134.2,51.3-134.2,153.7v127.8
		c0,79.3-19.1,142.8-57.3,190.4c-38.2,47.7-94.2,82-168,103.1L2599.5,2146.3z"/>
</g>
</svg>
