<svg id="Layer_1" data-name="Layer 1" xmlns="http://www.w3.org/2000/svg" viewBox="0 0 2320.8 1513.36"><defs><style>.cls-1{fill:#b0acb0;}.cls-2{fill:#85ebd9;}.cls-3{opacity:0.6;}.cls-4{fill:#e2dddf;}.cls-5{opacity:0.3;}.cls-10,.cls-6{fill:#3d898d;}.cls-7{fill:#eae8e8;}.cls-8{fill:#000070;}.cls-9{fill:#000072;}.cls-10{font-size:1296px;font-family:Roboto-Regular, Roboto;}</style></defs><title>logo</title><path class="cls-1" d="M1291.26,998.29a493.46,493.46,0,0,1-56.15,34.51,585.58,585.58,0,0,1-547.9,0c-4.38-2.33-8.66-4.68-12.89-7.08Q387.17,863.66,583.32,512c-7.56-52.58-12.13-104.61-11.92-155.79a730.63,730.63,0,0,1,4.94-83.79,48.4,48.4,0,0,1,52.32-42.33c86,7.38,162.26,28.49,226.81,66.11l68-4.25a606.36,606.36,0,0,1,75.3,0l68,4.25c64.55-37.62,140.84-58.73,226.81-66.11A48.39,48.39,0,0,1,1346,272.38a728.37,728.37,0,0,1,4.94,83.79c.21,51.18-4.36,103.21-11.91,155.79Q1519.58,835.33,1291.26,998.29Z" transform="translate(27.41 75.98)"/><path class="cls-2" d="M1291.26,998.29a493.46,493.46,0,0,1-56.15,34.51,585.58,585.58,0,0,1-547.9,0c-4.38-2.33-8.66-4.68-12.89-7.08C512.43,896.09,612.83,733,758.16,752.82c68.59.61,128.94-7.47,120.64-87.45-6.95-63.47,4.55-110.16,39.93-135a85.59,85.59,0,0,1,98.08,0c35.38,24.86,46.87,71.55,39.92,135-8.29,80,52.06,88.06,120.65,87.45C1312.61,734.38,1409,874.29,1291.26,998.29Z" transform="translate(27.41 75.98)"/><g class="cls-3"><path class="cls-4" d="M628.66,235.22c83.92,7.18,158.59,27.47,222.14,63.44h0a97.11,97.11,0,0,1-59.72-3c-49.14-18.84-103.5-30.34-162.42-35.4a48.4,48.4,0,0,0-52.32,42.33c-2.8,23.59-4.36,47.45-4.81,71.47-.07-4.25-.13-8.51-.13-12.76a730.63,730.63,0,0,1,4.94-83.79A48.39,48.39,0,0,1,628.66,235.22Z" transform="translate(27.41 75.98)"/></g><g class="cls-5"><path class="cls-4" d="M1291.27,998.29a490.76,490.76,0,0,1-56.14,34.5,585.49,585.49,0,0,1-547.94,0c-4.38-2.33-8.66-4.65-12.88-7.08Q504.77,930.09,503.7,768.27,545.78,842,640.18,895.19c4.23,2.43,8.51,4.76,12.89,7.08a585.49,585.49,0,0,0,547.94,0,497.46,497.46,0,0,0,56.14-34.49q142.06-101.49,125.76-265.14Q1486.3,859,1291.27,998.29Z" transform="translate(27.41 75.98)"/></g><g class="cls-3"><path class="cls-4" d="M1287.92,235.22c-83.92,7.18-158.59,27.47-222.14,63.44h0a97.08,97.08,0,0,0,59.71-3c49.15-18.84,103.51-30.34,162.43-35.4a48.39,48.39,0,0,1,52.31,42.33c2.8,23.59,4.36,47.45,4.81,71.47q.12-6.37.13-12.76a728.37,728.37,0,0,0-4.94-83.79A48.38,48.38,0,0,0,1287.92,235.22Z" transform="translate(27.41 75.98)"/></g><path class="cls-6" d="M961.16,1116a599.33,599.33,0,0,1-281-70c-95.82-50.82-156.39-117.22-180-197.36-27.69-93.85-4.94-208.09,67.61-339.62-12.62-90.18-14.68-168.23-6.31-238.47a63.15,63.15,0,0,1,68.48-55.5c88.61,7.59,165.65,29.73,229.11,65.8l63.55-4a620.61,620.61,0,0,1,77.15,0l63.54,4c63.47-36.07,140.51-58.21,229.1-65.8a63.15,63.15,0,0,1,68.5,55.5c8.37,70.23,6.3,148.29-6.32,238.47,72.56,131.53,95.31,245.77,67.62,339.62-23.65,80.14-84.23,146.54-180,197.36A599.37,599.37,0,0,1,961.16,1116ZM624.42,244.87a33.22,33.22,0,0,0-33.18,29.29c-8.21,68.9-6,146,6.93,235.67a15,15,0,0,1-1.75,9.44C526,645.36,503.29,753.34,528.92,840.2c21.28,72.12,76.9,132.46,165.33,179.35a569.07,569.07,0,0,0,533.83,0c88.42-46.89,144-107.23,165.32-179.35,25.63-86.86,2.93-194.84-67.49-320.93a15,15,0,0,1-1.75-9.44c12.87-89.68,15.14-166.77,6.93-235.67A33.25,33.25,0,0,0,1294.94,245c-86,7.37-160.19,28.95-220.53,64.12a15.05,15.05,0,0,1-8.49,2l-68.05-4.25a591.47,591.47,0,0,0-73.41,0l-68.05,4.25a14.72,14.72,0,0,1-8.49-2C787.57,274,713.37,252.37,627.38,245,626.39,244.91,625.4,244.87,624.42,244.87Z" transform="translate(27.41 75.98)"/><path class="cls-2" d="M644.09,435.54c32.44-36.69,65.55-68.58,100.41-87.85a436.33,436.33,0,0,0-96.3-34.61,16.68,16.68,0,0,0-20.41,17.26A609.14,609.14,0,0,0,644.09,435.54Z" transform="translate(27.41 75.98)"/><g class="cls-5"><path class="cls-7" d="M744.5,347.69a246.05,246.05,0,0,0-32.69,21.9,430.66,430.66,0,0,0-63.6-19.95,16.72,16.72,0,0,0-18.1,7.66c-1-8.95-1.77-17.94-2.32-26.95a16.68,16.68,0,0,1,20.42-17.28A437.47,437.47,0,0,1,744.5,347.69Z" transform="translate(27.41 75.98)"/></g><path class="cls-2" d="M1287,435.54c-32.45-36.69-65.56-68.58-100.41-87.85a436.43,436.43,0,0,1,96.29-34.61,16.68,16.68,0,0,1,20.41,17.26A608.15,608.15,0,0,1,1287,435.54Z" transform="translate(27.41 75.98)"/><g class="cls-5"><path class="cls-7" d="M1186.6,347.69a246,246,0,0,1,32.68,21.9,431,431,0,0,1,63.6-19.95,16.72,16.72,0,0,1,18.1,7.66q1.47-13.43,2.33-26.95a16.69,16.69,0,0,0-20.43-17.28A437.2,437.2,0,0,0,1186.6,347.69Z" transform="translate(27.41 75.98)"/></g><path class="cls-6" d="M644.09,446.11A10.55,10.55,0,0,1,633.82,438c-9-37.47-14.45-72.48-16.58-107a27.25,27.25,0,0,1,33.34-28.21,450,450,0,0,1,98.62,35.44,10.58,10.58,0,0,1,.41,18.72c-29.25,16.17-60.26,43.37-97.6,85.6A10.56,10.56,0,0,1,644.09,446.11Zm.3-122.9a6.13,6.13,0,0,0-6,6.49,575,575,0,0,0,11.57,83.67C676.24,385,699.8,364,722.27,348.93a426.11,426.11,0,0,0-76.45-25.55A6.18,6.18,0,0,0,644.39,323.21Z" transform="translate(27.41 75.98)"/><path class="cls-6" d="M1287,446.11a10.56,10.56,0,0,1-7.91-3.57c-37.34-42.23-68.36-69.43-97.61-85.6a10.57,10.57,0,0,1,.42-18.72,449.63,449.63,0,0,1,98.62-35.44A27.24,27.24,0,0,1,1313.85,331c-2.12,34.55-7.54,69.56-16.57,107a10.56,10.56,0,0,1-7.72,7.78A10.67,10.67,0,0,1,1287,446.11Zm-78.17-97.18c22.47,15.1,46,36.1,72.35,64.44a573.54,573.54,0,0,0,11.57-83.68,6.1,6.1,0,0,0-7.47-6.31A425.84,425.84,0,0,0,1208.83,348.93Z" transform="translate(27.41 75.98)"/><path class="cls-6" d="M810.44,445.16c-9.65,2.3-17.48,3.83-24.86,6.18a143.18,143.18,0,0,0-21.2,8.28,151.7,151.7,0,0,0-20.64,12.78c-6.89,5-13.75,10.56-21.3,16.48l-.16.13a5.94,5.94,0,0,1-9.46-6,73.59,73.59,0,0,1,13.27-28,81.07,81.07,0,0,1,24-21.46c9.52-5.61,20.72-9.27,32.09-9.31s22.54,3.08,31.13,10a6.16,6.16,0,0,1-2.45,10.78Z" transform="translate(27.41 75.98)"/><path class="cls-6" d="M1123.11,434.29c8.59-7,19.83-10.07,31.13-10s22.57,3.7,32.09,9.31a81.19,81.19,0,0,1,24,21.46,73.72,73.72,0,0,1,13.26,28,5.94,5.94,0,0,1-9.43,6l-.19-.15c-7.54-5.92-14.4-11.5-21.29-16.48A151.78,151.78,0,0,0,1172,459.62a142.64,142.64,0,0,0-21.19-8.28c-7.38-2.35-15.21-3.88-24.86-6.18l-.42-.09a6.16,6.16,0,0,1-2.45-10.78Z" transform="translate(27.41 75.98)"/><path class="cls-8" d="M1013.79,698.21c0,15.1-20.61,27.33-46,27.33s-46-12.23-46-27.33,20.6-22.87,46-22.87S1013.79,683.12,1013.79,698.21Z" transform="translate(27.41 75.98)"/><path class="cls-9" d="M978.33,708.26V750.1a10.38,10.38,0,0,1-1,4.52l-.36.72c-5.49,11.2-16.23,19.69-27.85,23.24a54.16,54.16,0,0,1-35.24-1,49.59,49.59,0,0,1-26.32-22.34c-5.65-10.17-6.93-21.61-5.76-32a4.56,4.56,0,0,1,9-.29l.05.28c1.59,9,4.75,17.19,9.86,23.28A35.65,35.65,0,0,0,920,758.38a39.78,39.78,0,0,0,22-1.15,33.57,33.57,0,0,0,16.61-12.37l-1.4,5.24V708.26a10.57,10.57,0,0,1,21.13,0Z" transform="translate(27.41 75.98)"/><path class="cls-9" d="M978.33,708.26V750.1l-1.39-5.24a33.57,33.57,0,0,0,16.61,12.37,39.78,39.78,0,0,0,22,1.15,35.65,35.65,0,0,0,19.28-11.87c5.11-6.09,8.27-14.26,9.86-23.28l0-.27a4.55,4.55,0,0,1,9,.28c1.17,10.35-.11,21.79-5.76,32a49.61,49.61,0,0,1-26.33,22.34,54.13,54.13,0,0,1-35.23,1c-11.62-3.55-22.36-12-27.85-23.24l-.34-.68a10.6,10.6,0,0,1-1.06-4.56V708.26a10.57,10.57,0,0,1,21.13,0Z" transform="translate(27.41 75.98)"/><path class="cls-6" d="M799.7,523.79c-37.4-7.42-75.16,27-84.34,76.83s13.71,96.28,51.11,103.71,75.16-27,84.33-76.83S837.1,531.22,799.7,523.79Z" transform="translate(27.41 75.98)"/><path class="cls-4" d="M795.4,544.63c-12.37,3.38-18.88,20-14.54,37.12S798.74,610,811.1,606.64s18.88-20,14.54-37.12S807.77,541.25,795.4,544.63Z" transform="translate(27.41 75.98)"/><path class="cls-2" d="M746.53,648.8c-6,3.29-7.42,12.67-3.2,21s12.5,12.34,18.48,9.06,7.42-12.68,3.2-21S752.51,645.51,746.53,648.8Z" transform="translate(27.41 75.98)"/><path class="cls-6" d="M1146.47,523.79c37.4-7.42,75.16,27,84.33,76.83s-13.7,96.28-51.1,103.71-75.16-27-84.34-76.83S1109.07,531.22,1146.47,523.79Z" transform="translate(27.41 75.98)"/><path class="cls-4" d="M1150.77,544.63c12.36,3.38,18.87,20,14.54,37.12s-17.88,28.26-30.25,24.89-18.87-20-14.54-37.12S1138.4,541.25,1150.77,544.63Z" transform="translate(27.41 75.98)"/><path class="cls-2" d="M1199.64,648.8c6,3.29,7.42,12.67,3.2,21s-12.5,12.34-18.49,9.06-7.41-12.68-3.19-21S1193.65,645.51,1199.64,648.8Z" transform="translate(27.41 75.98)"/><path class="cls-2" d="M610.61,910.51c0,50-52.82,60.53-118,60.53-52.13,0-96.34-6.76-111.92-35.07-3.91-7.08-6-15.48-6-25.46,0-50,52.82-90.48,117.94-90.48,58.73,0,107.49,32.91,116.46,76A69,69,0,0,1,610.61,910.51Z" transform="translate(27.41 75.98)"/><g class="cls-5"><path class="cls-4" d="M610.61,910.51c0,50-52.82,60.53-118,60.53-52.13,0-96.34-6.76-111.92-35.07a61.13,61.13,0,0,1-.74-9.61,70.19,70.19,0,0,1,1.53-14.53c20.6,6.92,47.38,9,76.69,9,65.18,0,118-10.56,118-60.53,0-.58,0-1.1,0-1.69,14.79,10,26.25,22.82,33,37.4A69,69,0,0,1,610.61,910.51Z" transform="translate(27.41 75.98)"/></g><path class="cls-6" d="M492.63,986c-36.37,0-133,0-133-75.53,0-58.15,59.64-105.46,133-105.46s133,47.31,133,105.46C625.59,986,529,986,492.63,986Zm0-151c-56.77,0-103,33.85-103,75.46,0,22.51,12.23,45.53,103,45.53s103-23,103-45.53C595.59,868.9,549.4,835.05,492.63,835.05Z" transform="translate(27.41 75.98)"/><path class="cls-2" d="M1516.94,935c-12.17,48.46-66,45.84-129.18,30-50.57-12.69-91.8-30-100-61.27-2.06-7.81-2.07-16.47.36-26.15,12.17-48.47,73.26-74.9,136.43-59,57,14.3,96.23,58.09,94.45,102.08A69.14,69.14,0,0,1,1516.94,935Z" transform="translate(27.41 75.98)"/><g class="cls-5"><path class="cls-4" d="M1516.94,935c-12.17,48.46-66,45.84-129.18,30-50.57-12.69-91.8-30-100-61.27a63.26,63.26,0,0,1,1.63-9.5,69.71,69.71,0,0,1,5-13.71c18.29,11.72,43.75,20.29,72.19,27.43,63.21,15.87,117,18.49,129.18-30,.14-.57.27-1.08.36-1.66,11.91,13.29,19.9,28.53,22.86,44.3A69.14,69.14,0,0,1,1516.94,935Z" transform="translate(27.41 75.98)"/></g><path class="cls-6" d="M1454.92,990.23c-19.05,0-42.09-3.51-70.8-10.72-38.85-9.76-65.35-20.57-83.4-34-31.43-23.43-32.12-51.88-27.16-71.62,7-28.06,27.53-50.7,57.68-63.74,28.78-12.45,63.21-14.65,97-6.17,71.1,17.86,117.43,78.26,103.27,134.66-5,19.75-19,44.5-57.77,50.3A126.79,126.79,0,0,1,1454.92,990.23Zm-67.21-161.36a112.53,112.53,0,0,0-44.57,8.79c-21.38,9.26-35.76,24.71-40.49,43.52-4.14,16.51.79,28.92,16,40.26,14.56,10.85,38.37,20.33,72.78,29s59.86,11.53,77.83,8.84c18.76-2.81,29-11.42,33.12-27.93,10.13-40.36-26.43-84.44-81.49-98.26A136.35,136.35,0,0,0,1387.71,828.87Z" transform="translate(27.41 75.98)"/><text x="27.41" y="75.98"/><text class="cls-10" transform="translate(0 1108.69)">{ </text><text class="cls-10" transform="translate(1561.43 1108.69)">} </text></svg>